<svg xmlns="http://www.w3.org/2000/svg" width="309" height="240" fill="none"><path fill="#231F20" fill-rule="evenodd" d="M302.405 236.746v.616h.575a.607.607 0 0 0 .309-.078.272.272 0 0 0 .115-.236.262.262 0 0 0-.115-.23.558.558 0 0 0-.309-.079h-.575v.007Zm.581-.437c.247-.015.491.056.691.201a.664.664 0 0 1 .243.546.627.627 0 0 1-.195.479.948.948 0 0 1-.552.23l.771.879h-.594l-.709-.873h-.23v.873h-.497v-2.333h1.08l-.008-.002Zm-.154 3.14c.261.003.519-.05.758-.154a1.97 1.97 0 0 0 1.035-1.035 2 2 0 0 0 0-1.527c-.1-.23-.242-.439-.418-.617a1.993 1.993 0 0 0-.617-.418 1.951 1.951 0 0 0-.758-.145 2.035 2.035 0 0 0-.771.145c-.235.097-.45.239-.631.418a1.997 1.997 0 0 0-.412 2.16c.094.231.234.441.412.617a2.008 2.008 0 0 0 1.402.572v-.016Zm0-4.457a2.583 2.583 0 0 1 1.813.74 2.485 2.485 0 0 1 0 3.552c-.237.227-.512.41-.813.54a2.524 2.524 0 0 1-1 .201 2.634 2.634 0 0 1-1.831-.741 2.602 2.602 0 0 1-.538-.826 2.487 2.487 0 0 1 .546-2.752 2.44 2.44 0 0 1 .819-.54c.32-.135.665-.203 1.012-.2l-.008.026Zm-236.175-9.013c0-4.449 2.916-8.105 7.68-8.105 4.553 0 7.626 3.498 7.626 8.105 0 4.608-3.073 8.106-7.626 8.106-4.764 0-7.68-3.656-7.68-8.106Zm20.496 0v-12.663h-5.505v3.085c-1.746-2.28-4.394-3.709-7.996-3.709-7.095 0-12.663 5.565-12.663 13.294s5.565 13.294 12.663 13.294c3.6 0 6.25-1.432 7.996-3.71v3.074h5.499v-12.665h.006Zm186.003 0c0-4.449 2.915-8.105 7.681-8.105 4.558 0 7.626 3.498 7.626 8.105 0 4.608-3.068 8.106-7.626 8.106-4.764 0-7.681-3.656-7.681-8.106Zm20.502 0v-22.827h-5.51v13.249c-1.746-2.28-4.394-3.709-7.995-3.709-7.096 0-12.664 5.565-12.664 13.294s5.565 13.294 12.664 13.294c3.601 0 6.249-1.432 7.995-3.71v3.074h5.51v-12.665Zm-138.182-8.366c3.547 0 5.826 2.225 6.407 6.141h-13.135c.588-3.656 2.807-6.141 6.729-6.141h-.001Zm.111-4.935c-7.419 0-12.609 5.398-12.609 13.294 0 8.05 5.398 13.294 12.978 13.294 3.812 0 7.305-.952 10.377-3.548l-2.698-4.079c-2.122 1.696-4.824 2.648-7.365 2.648-3.547 0-6.777-1.643-7.571-6.201h18.797c.054-.684.109-1.375.109-2.116-.055-7.892-4.935-13.294-12.021-13.294l.003.002Zm66.46 13.292c0-4.45 2.915-8.105 7.679-8.105 4.554 0 7.626 3.498 7.626 8.105s-3.072 8.106-7.626 8.106c-4.764 0-7.681-3.656-7.681-8.106h.002Zm20.494 0v-12.654h-5.502v3.085c-1.752-2.28-4.394-3.709-7.996-3.709-7.095 0-12.663 5.565-12.663 13.294s5.565 13.294 12.663 13.294c3.602 0 6.244-1.432 7.996-3.71v3.074h5.503v-12.665l-.001-.009Zm-51.582 0c0 7.68 5.346 13.294 13.506 13.294 3.812 0 6.353-.848 9.1-3.018l-2.644-4.45c-2.067 1.485-4.237 2.28-6.632 2.28-4.395-.054-7.626-3.232-7.626-8.106s3.231-8.05 7.626-8.105c2.389 0 4.559.794 6.632 2.279l2.644-4.449c-2.752-2.171-5.292-3.019-9.1-3.019-8.16 0-13.506 5.613-13.506 13.294Zm70.967-13.294c-3.176 0-5.244 1.485-6.674 3.71v-3.07h-5.456v25.314h5.511v-14.19c0-4.189 1.8-6.517 5.399-6.517a8.933 8.933 0 0 1 3.442.637l1.697-5.188c-1.218-.48-2.807-.691-3.922-.691l.003-.005Zm-147.557 2.653c-2.648-1.746-6.298-2.648-10.323-2.648-6.414 0-10.543 3.074-10.543 8.104 0 4.127 3.074 6.674 8.735 7.468l2.6.37c3.019.424 4.444 1.219 4.444 2.648 0 1.958-2.005 3.075-5.77 3.075-3.813 0-6.565-1.219-8.42-2.649l-2.587 4.293c3.019 2.224 6.832 3.285 10.961 3.285 7.311 0 11.548-3.443 11.548-8.263 0-4.45-3.335-6.777-8.844-7.571l-2.595-.377c-2.383-.308-4.292-.788-4.292-2.485 0-1.85 1.8-2.964 4.82-2.964 3.231 0 6.359 1.218 7.892 2.17l2.383-4.45-.009-.006Zm71.03-2.644c-3.176 0-5.244 1.486-6.668 3.71v-3.079h-5.456v25.314h5.505v-14.19c0-4.189 1.8-6.517 5.399-6.517a8.933 8.933 0 0 1 3.442.637l1.697-5.188c-1.218-.48-2.807-.691-3.922-.691l.003.004Zm-46.976.631h-9.002v-7.679h-5.565v7.679h-5.134v5.032h5.134v11.548c0 5.873 2.28 9.371 8.792 9.371 2.389 0 5.141-.74 6.887-1.957l-1.59-4.714c-1.643.952-3.443 1.432-4.874 1.432-2.752 0-3.65-1.697-3.65-4.237v-11.439h9.002v-5.036Zm-82.302 25.321V222.75c0-5.983-3.813-10.009-9.959-10.063-3.232-.054-6.565.952-8.898 4.504-1.746-2.807-4.498-4.504-8.366-4.504-2.704 0-5.346.794-7.415 3.759v-3.13h-5.509v25.314h5.552v-14.036c0-4.394 2.437-6.729 6.201-6.729 3.655 0 5.505 2.383 5.505 6.674v14.088h5.565v-14.036c0-4.394 2.54-6.729 6.194-6.729 3.759 0 5.553 2.383 5.553 6.674v14.088l5.577.013Z" clip-rule="evenodd"/><path fill="#F79410" fill-rule="evenodd" d="M305.544 154.43v-3.702h-.964l-1.115 2.54-1.109-2.54h-.967v3.702h.684v-2.789l1.043 2.406h.71l1.042-2.412v2.795h.679-.003Zm-6.116 0v-3.068h1.234v-.625h-3.153v.625h1.234v3.068h.685Z" clip-rule="evenodd"/><path fill="#FF5F00" fill-rule="evenodd" d="M195.975 170.306h-83.423V20.383h83.425l-.002 149.923Z" clip-rule="evenodd"/><path fill="#EB001B" fill-rule="evenodd" d="M117.841 95.348c0-30.412 14.24-57.503 36.413-74.962A94.944 94.944 0 0 0 95.336 0C42.682 0 0 42.688 0 95.348c0 52.659 42.682 95.347 95.336 95.347a94.952 94.952 0 0 0 58.92-20.386c-22.172-17.456-36.415-44.548-36.415-74.96" clip-rule="evenodd"/><path fill="#F79410" fill-rule="evenodd" d="M308.522 95.348c0 52.659-42.682 95.347-95.335 95.347a94.98 94.98 0 0 1-58.928-20.386c22.18-17.459 36.42-44.548 36.42-74.96 0-30.415-14.24-57.504-36.42-74.963A94.974 94.974 0 0 1 213.185 0c52.654 0 95.336 42.688 95.336 95.348" clip-rule="evenodd"/></svg>