<svg xmlns="http://www.w3.org/2000/svg" width="600" height="114"><g fill-rule="evenodd"><path fill="#0498ba" d="M.5 23c8.159-.027 16.317-.026 24.476-.11 1.395-.014 1.69.555 1.625 1.773-.076 1.408-.018 2.824-.018 4.321.306-.057.597-.022.742-.151 17.247-15.289 43.533-9.186 51.751 12.423 5.855 15.397 4.752 30.333-6.376 43.337-11.739 13.717-34.058 14.373-45.195 5.514-.173-.138-.425-.176-1.005-.404V114c-7.9 0-15.8-.057-23.699.044-1.772.022-2.363-.238-2.358-2.233C.525 82.207.5 52.604.5 23zm25.426 35.078c-.111 8.506 5.778 14.645 14.196 14.797 8.028.145 14.247-5.814 14.377-13.776.149-9.208-5.378-15.385-13.883-15.515-8.608-.132-14.575 5.756-14.69 14.494zM600.5 94c-7.313-.483-14.635-.077-21.951-.209-.749-.013-1.509-.079-2.246.016-1.623.209-2.021-.555-1.909-2.022.106-1.39.022-2.795.022-4.542-1.484 1.232-2.677 2.336-3.98 3.287-12.225 8.908-31.617 6.816-41.996-4.505-12.975-14.155-12.913-39.895-.158-54.186 11.564-12.955 33.688-14.569 45.262-5.357.167.133.427.149.873.296 0-6.274.096-12.406-.057-18.531-.046-1.872.67-2.394 2.293-2.696 6.945-1.293 13.872-2.685 20.807-4.037.398-.078.84-.046 1.041-.515 1.711-.378 2.053.288 2.049 2-.069 30.334-.05 60.667-.05 91.001zm-53.999-35.838c-.007 8.704 5.763 14.765 14.097 14.809 8.521.047 14.443-5.975 14.477-14.719.031-8.51-5.903-14.465-14.411-14.461-8.415.004-14.157 5.831-14.163 14.371zM418.68 20.469c7.956.122 14.641 1.237 21.007 3.964 14.999 6.423 22.888 20.112 21.583 36.413-1.56 19.49-14.82 30.803-32.305 34.098-10.387 1.959-20.588 1.152-30.359-3.009-15.441-6.573-22.246-19.692-21.436-35.479 1.156-22.514 17.57-33.092 35.115-35.436 2.469-.33 4.969-.432 6.395-.551zm-13.885 37.82c.002 8.482 6.156 14.709 14.416 14.588 8.381-.123 14.197-6.057 14.205-14.492.008-8.794-5.865-14.836-14.389-14.802-8.395.034-14.236 6.067-14.232 14.706zM129.176 20.482c10.908.271 21.103 2.735 29.691 9.914 7.15 5.977 10.82 13.792 11.622 22.978.916 10.492-1.016 20.253-8.051 28.488-6.028 7.055-13.9 10.938-22.862 12.817-10.625 2.228-21.037 1.558-31.112-2.567-16.718-6.844-23.339-21.486-21.72-37.907 1.813-18.375 14.729-29.348 31.757-32.67 3.52-.687 7.077-1.063 10.675-1.053zm-.434 23.102c-8.521-.068-14.478 5.886-14.648 14.643-.16 8.229 6.154 14.627 14.443 14.633 8.247.006 14.273-6.037 14.366-14.404.094-8.526-5.886-14.806-14.161-14.872z"/><path fill="#0598ba" d="M324.639 28.651c8.594-8.386 18.7-9.742 29.544-6.832 9.833 2.639 14.446 10.021 16.273 19.528.489 2.543.64 5.113.637 7.703-.019 14.081-.042 28.161.029 42.241.01 1.875-.365 2.59-2.431 2.553-7.162-.133-14.33-.115-21.493-.008-1.939.029-2.548-.473-2.538-2.49.053-11.744-.033-23.49-.104-35.235a19.22 19.22 0 0 0-.354-3.466c-1.214-6.333-3.75-8.44-9.795-8.213-5.817.218-9.371 3.372-9.884 9.181-.579 6.562-.163 13.155-.221 19.734-.054 6.081-.073 12.164.026 18.244.029 1.776-.547 2.259-2.273 2.238-7.331-.083-14.664-.077-21.995-.002-1.607.016-2.106-.403-2.102-2.082.058-22.246.063-44.491-.005-66.735-.005-1.857.645-2.147 2.286-2.129 7.165.082 14.332.114 21.494-.014 2.094-.038 2.843.564 2.594 2.642-.112.939-.253 1.964.312 3.142zM211.215 20.546c8.705.298 16.646.971 24.469 2.806 1.644.386 1.959.893 1.548 2.508-1.332 5.236-2.582 10.498-3.658 15.792-.402 1.981-1.126 2.04-2.841 1.527-8.105-2.422-16.334-3.978-24.853-2.736-.653.095-1.295.284-1.93.472-1.563.46-2.785 1.376-2.767 3.105.019 1.79 1.407 2.568 2.948 2.917 5.601 1.269 11.371 1.593 16.944 3.038 2.986.774 5.918 1.682 8.708 3.009 7.723 3.672 11.162 9.681 10.907 18.218-.302 10.111-5.477 16.606-14.466 20.478-7.246 3.119-14.946 3.904-22.702 4.075-9.706.214-19.249-1.075-28.61-3.718-1.525-.431-1.939-.91-1.485-2.545a424.935 424.935 0 0 0 4.245-16.678c.423-1.804 1.067-1.934 2.69-1.309 8.626 3.319 17.51 5.265 26.834 4.569 1.261-.095 2.486-.319 3.63-.831 1.287-.574 2.195-1.458 2.18-3.033-.015-1.588-.941-2.426-2.275-2.937-2.905-1.114-5.99-1.359-9.034-1.76-5.292-.696-10.524-1.649-15.497-3.649-14.374-5.781-17.364-24.28-5.58-34.483 6.473-5.604 14.377-7.417 22.58-8.323 2.892-.318 5.812-.377 8.015-.512zM245.499 50.268c0-13.667.042-27.333-.047-41-.013-1.896.495-2.345 2.345-2.316 7.248.112 14.501.127 21.748-.007 1.991-.037 2.341.654 2.285 2.421-.121 3.83.048 7.668-.075 11.498-.056 1.717.579 2.098 2.161 2.081 6.583-.072 13.167.01 19.75-.057 1.734-.018 2.28.252 1.311 2.007A1184.365 1184.365 0 0 0 284.9 43.562c-.596 1.125-1.319 1.502-2.556 1.464-2.748-.084-5.507.099-8.247-.068-1.89-.115-2.359.479-2.349 2.35.081 14.416.045 28.833.044 43.25 0 3.23-.001 3.231-3.204 3.232-6.833 0-13.668-.084-20.499.051-2.051.041-2.656-.46-2.641-2.574.098-13.665.051-27.332.051-40.999z"/><path fill="#0498ba" d="M493.583 30.506c5.988-8.059 13.937-9.128 22.504-8.469 1.558.119 2.31.717 2.241 2.489-.261 6.734-.4 13.473-.518 20.211-.027 1.597-.529 2.004-2.111 1.595a27.26 27.26 0 0 0-9.166-.75c-8.641.735-12.903 5.295-12.938 13.97-.043 10.494-.067 20.988.035 31.48.021 2.093-.354 2.877-2.683 2.82-7.074-.174-14.156-.104-21.234-.033-1.608.016-2.344-.229-2.338-2.125.066-22.236.058-44.473.01-66.708-.004-1.605.406-2.127 2.068-2.108 7.41.086 14.824.084 22.234.001 1.592-.019 2.025.507 1.922 1.999-.115 1.648-.026 3.31-.026 5.628z"/></g></svg>