<svg xmlns="http://www.w3.org/2000/svg" xml:space="preserve" viewBox="88.06 86.55 544.35 110.36"><path d="M1132.16 1258.07c-29.51 24.46-72.61 36.69-129.28 36.69H849.125v-284.2h153.755c56.67 0 99.77 12.41 129.28 37.27 29.51 24.84 44.27 59.78 44.27 104.83 0 45.81-14.76 80.95-44.27 105.41zm47.76-624.898-157.24 227.129H849.125V633.172H660.43v815.338h352.93c72.22 0 134.91-12.04 188.11-36.11 53.18-24.07 94.15-58.23 122.88-102.5 28.72-44.26 43.1-96.67 43.1-157.24 0-60.57-14.56-112.8-43.68-156.66-29.12-43.879-70.47-77.461-124.05-100.75l182.87-262.078h-202.67M2347.25 643.07c-49.71 12.821-89.31 28.918-118.81 48.34L2289 821.859c27.96-17.871 61.74-32.429 101.34-43.668 39.6-11.269 78.42-16.89 116.48-16.89 76.87 0 115.31 19.008 115.31 57.07 0 17.848-10.49 30.668-31.45 38.438-20.96 7.75-53.2 14.363-96.68 19.8-51.25 7.75-93.58 16.692-126.96 26.789-33.39 10.082-62.31 27.954-86.77 53.582-24.46 25.622-36.69 62.11-36.69 109.49 0 39.6 11.44 74.72 34.36 105.41 22.89 30.67 56.29 54.54 100.17 71.63 43.86 17.07 95.69 25.63 155.5 25.63 44.26 0 88.32-4.86 132.2-14.56 43.86-9.72 80.17-23.11 108.91-40.19l-60.57-129.29c-55.15 31.05-115.32 46.6-180.54 46.6-38.84 0-67.96-5.45-87.36-16.31-19.42-10.89-29.12-24.87-29.12-41.94 0-19.41 10.48-33.01 31.45-40.76 20.96-7.77 54.34-15.14 100.17-22.13 51.25-8.56 93.18-17.669 125.79-27.369 32.62-9.722 60.96-27.382 85.03-53 24.06-25.632 36.11-61.351 36.11-107.16 0-38.84-11.65-73.383-34.94-103.672-23.3-30.277-57.27-53.777-101.92-70.468-44.66-16.692-97.66-25.039-158.99-25.039-52.03 0-102.9 6.41-152.58 19.218M4294.6 643.07c-49.7 12.821-89.31 28.918-118.81 48.34l60.58 130.449c27.95-17.871 61.72-32.429 101.32-43.668 39.61-11.269 78.43-16.89 116.49-16.89 76.87 0 115.31 19.008 115.31 57.07 0 17.848-10.49 30.668-31.45 38.438-20.97 7.75-53.2 14.363-96.67 19.8-51.25 7.75-93.59 16.692-126.97 26.789-33.4 10.082-62.31 27.954-86.77 53.582-24.47 25.622-36.69 62.11-36.69 109.49 0 39.6 11.44 74.72 34.36 105.41 22.89 30.67 56.29 54.54 100.17 71.63 43.86 17.07 95.69 25.63 155.5 25.63 44.25 0 88.32-4.86 132.19-14.56 43.87-9.72 80.18-23.11 108.91-40.19l-60.57-129.29c-55.14 31.05-115.31 46.6-180.53 46.6-38.84 0-67.96-5.45-87.37-16.31-19.41-10.89-29.11-24.87-29.11-41.94 0-19.41 10.48-33.01 31.45-40.76 20.96-7.77 54.34-15.14 100.17-22.13 51.25-8.56 93.18-17.669 125.79-27.369 32.62-9.722 60.95-27.382 85.03-53 24.07-25.632 36.11-61.351 36.11-107.16 0-38.84-11.64-73.383-34.95-103.672-23.29-30.277-57.27-53.777-101.91-70.468-44.67-16.692-97.66-25.039-158.99-25.039-52.03 0-102.9 6.41-152.59 19.218M3537.9 1259.82h-181.7v-327.3c0-100.961-42.32-151.418-126.96-151.418v-.02.02c-84.64 0-126.96 50.457-126.96 151.418v327.3h-181.7V905.73c0-47.539 6.34-89.031 18.87-124.648h-.04c32.32-95.051 113.33-160.301 289.83-160.301s257.51 65.25 289.83 160.301h-.04c12.53 35.617 18.87 77.109 18.87 124.648v354.09M1692.27 1096.17c27.95 23.68 62.13 35.53 102.5 35.53 41.16 0 75.71-11.65 103.66-34.95 25.32-21.1 41.63-49.28 49.11-84.39H1643.2c7.51 34.42 23.8 62.39 49.07 83.81zm394.27 16.31c-29.12 49.3-69.1 87.74-119.97 115.31-50.85 27.55-107.74 41.35-170.64 41.35-61.33 0-116.86-13.21-166.56-39.6-49.69-26.41-88.71-64.27-117.06-113.57-28.34-49.32-42.52-106.58-42.52-171.798 0-2.332 1.17-18.641 3.5-48.922h474.06c-8.53-38.84-28.72-69.512-60.57-92.02-31.83-22.531-71.43-33.781-118.8-33.781-32.61 0-61.53 4.84-86.78 14.563-25.22 9.699-48.72 25.039-70.47 46.008l-96.67-104.829c59.02-67.562 145.21-101.339 258.58-101.339 70.67 0 133.18 13.777 187.53 41.347 54.36 27.563 96.29 65.813 125.79 114.731 29.52 48.922 44.26 104.429 44.26 166.57 0 61.33-14.56 116.66-43.68 165.98M4066.88 1103.49l59.82 164.37c-11.02.98-22.34 1.45-34.04 1.28-42.71-.64-81.21-7.91-116.92-22.28-35.73-14.37-69.44-40.61-90.41-69.74v82.7h-173.56V633.172h181.71V943c0 54.582 20.2 92.55 45.41 118.18 26.88 27.32 66.38 39.77 104.85 42.05 8.12.48 15.76.52 23.14.26" style="fill:#231f20;fill-opacity:1;fill-rule:nonzero;stroke:none" transform="matrix(.13333 0 0 -.13333 0 279.68)"/></svg>