<svg xmlns="http://www.w3.org/2000/svg" xmlns:xlink="http://www.w3.org/1999/xlink" width="578" height="176"><defs><linearGradient id="c" x1=".808" x2=".599" y1=".596" y2=".081"><stop offset="0" stop-color="#EF2131"/><stop offset="1" stop-color="#FECF2C"/></linearGradient><linearGradient id="d" x1=".588" x2=".092" y1="0" y2=".941"><stop offset="0" stop-color="#FBC52C"/><stop offset=".264" stop-color="#F87130"/><stop offset=".561" stop-color="#EF52E2"/><stop offset="1" stop-color="#661EEC"/></linearGradient><linearGradient id="e" x1=".206" x2=".406" y1=".41" y2=".913"><stop offset="0" stop-color="#78F6D8"/><stop offset=".266" stop-color="#77D1F6"/><stop offset=".554" stop-color="#70A4F3"/><stop offset="1" stop-color="#661EEC"/></linearGradient><linearGradient id="f" x1=".424" x2=".916" y1="1" y2=".063"><stop offset="0" stop-color="#536EED"/><stop offset=".247" stop-color="#54C3EC"/><stop offset=".564" stop-color="#64D769"/><stop offset="1" stop-color="#FECF2C"/></linearGradient><clipPath id="b"><use xlink:href="#a"/></clipPath><path id="a" d="M0 0h578v176H0V0Z"/></defs><path fill="none" d="M0 0h578v176H0V0Z"/><g clip-path="url(#b)"><path fill="#4A4A49" fill-rule="evenodd" d="M549.059 48.903c0-2.03.373-3.932 1.12-5.708.746-1.776 1.76-3.325 3.04-4.647a14.192 14.192 0 0 1 4.5-3.124c1.72-.762 3.567-1.142 5.54-1.142 2.001 0 3.874.38 5.621 1.142a14.317 14.317 0 0 1 4.56 3.124c1.293 1.322 2.313 2.871 3.06 4.647.747 1.776 1.12 3.679 1.12 5.708 0 2.03-.373 3.933-1.12 5.709-.747 1.776-1.767 3.324-3.06 4.646a14.32 14.32 0 0 1-4.56 3.125c-1.747.761-3.62 1.142-5.621 1.142-1.973 0-3.82-.38-5.54-1.142a14.194 14.194 0 0 1-4.5-3.125c-1.28-1.322-2.294-2.87-3.04-4.646-.747-1.776-1.12-3.679-1.12-5.709Zm2.92 0c0 1.683.286 3.245.86 4.687a11.675 11.675 0 0 0 2.38 3.766 11.163 11.163 0 0 0 3.58 2.523c1.373.615 2.86.922 4.46.922 1.627 0 3.134-.307 4.521-.922a11.343 11.343 0 0 0 3.62-2.523c1.027-1.069 1.833-2.324 2.42-3.766.587-1.442.88-3.004.88-4.687 0-1.682-.293-3.244-.88-4.687-.587-1.442-1.393-2.697-2.42-3.765a11.343 11.343 0 0 0-3.62-2.524c-1.387-.614-2.894-.921-4.521-.921-1.6 0-3.087.307-4.46.921a11.163 11.163 0 0 0-3.58 2.524 11.675 11.675 0 0 0-2.38 3.765c-.574 1.443-.86 3.005-.86 4.687Zm6.4-6.289c0-.881.44-1.322 1.32-1.322h4.52c1.441 0 2.587.414 3.441 1.242.853.828 1.28 1.95 1.28 3.365 0 .587-.087 1.108-.26 1.562a4.417 4.417 0 0 1-.66 1.182c-.267.334-.56.608-.88.821-.32.214-.64.36-.96.44v.08c.026.028.066.081.12.161.053.053.106.14.16.26.053.12.133.26.24.421l2.08 4.046c.24.454.293.821.16 1.102-.134.28-.427.42-.88.42h-.48c-.747 0-1.267-.32-1.56-.961l-2.321-4.887h-2.48v4.566c0 .855-.413 1.282-1.24 1.282h-.36c-.827 0-1.24-.427-1.24-1.282V42.614Zm5.24 5.849c.774 0 1.374-.227 1.8-.681.427-.454.641-1.082.641-1.883 0-.775-.214-1.375-.641-1.803-.426-.427-1.013-.64-1.76-.64h-2.44v5.007h2.4ZM447.016 58.04c4.522 0 8.357.577 11.505 1.731 3.148 1.155 5.608 2.22 7.382 3.197 1.507.8 2.394 1.865 2.66 3.197s.044 2.752-.665 4.262l-1.33 2.397c-.798 1.599-1.818 2.531-3.059 2.797-1.242.267-2.705.045-4.39-.665-1.507-.71-3.325-1.444-5.453-2.198-2.128-.755-4.611-1.132-7.448-1.132-2.927 0-5.188.577-6.784 1.731-1.596 1.154-2.394 2.797-2.394 4.928 0 1.865.82 3.375 2.461 4.529 1.64 1.154 3.724 2.175 6.251 3.064 2.527.888 5.232 1.842 8.114 2.863a40.326 40.326 0 0 1 8.113 3.93 20.583 20.583 0 0 1 6.251 6.126c1.641 2.487 2.461 5.639 2.461 9.457 0 3.02-.599 5.794-1.796 8.325-1.197 2.53-2.926 4.728-5.187 6.593-2.261 1.865-4.988 3.33-8.18 4.396-3.192 1.065-6.739 1.598-10.64 1.598-5.498 0-10.131-.8-13.9-2.398-3.768-1.598-6.672-3.107-8.712-4.528-1.507-.888-2.35-1.998-2.527-3.33-.177-1.332.222-2.753 1.197-4.262l1.596-2.398c.976-1.42 2.062-2.22 3.259-2.397 1.197-.178 2.638.177 4.323 1.065 1.596.888 3.657 1.887 6.185 2.997 2.527 1.11 5.519 1.665 8.978 1.665 2.926 0 5.231-.621 6.916-1.865 1.685-1.243 2.527-2.93 2.527-5.061 0-1.865-.82-3.352-2.461-4.462-1.64-1.11-3.724-2.131-6.251-3.064-2.527-.932-5.232-1.931-8.113-2.997a43.07 43.07 0 0 1-8.114-3.995 20.584 20.584 0 0 1-6.251-6.127c-1.641-2.487-2.461-5.683-2.461-9.59 0-3.286.687-6.216 2.062-8.791a18.46 18.46 0 0 1 5.586-6.394c2.35-1.687 5.099-2.974 8.247-3.862 3.147-.888 6.495-1.332 10.042-1.332Zm-197.709 0c4.523 0 8.358.577 11.506 1.731 3.148 1.155 5.608 2.22 7.382 3.197 1.507.8 2.394 1.865 2.66 3.197s.044 2.752-.665 4.262l-1.33 2.397c-.798 1.599-1.818 2.531-3.06 2.797-1.241.267-2.704.045-4.389-.665-1.507-.71-3.325-1.444-5.453-2.198-2.128-.755-4.611-1.132-7.449-1.132-2.926 0-5.187.577-6.783 1.731-1.596 1.154-2.394 2.797-2.394 4.928 0 1.865.82 3.375 2.46 4.529 1.641 1.154 3.725 2.175 6.252 3.064 2.527.888 5.231 1.842 8.113 2.863a40.31 40.31 0 0 1 8.114 3.93 20.588 20.588 0 0 1 6.251 6.126c1.64 2.487 2.46 5.639 2.46 9.457 0 3.02-.598 5.794-1.795 8.325-1.197 2.53-2.926 4.728-5.187 6.593-2.261 1.865-4.988 3.33-8.18 4.396-3.192 1.065-6.74 1.598-10.64 1.598-5.498 0-10.131-.8-13.9-2.398-3.768-1.598-6.672-3.107-8.712-4.528-1.507-.888-2.35-1.998-2.527-3.33-.177-1.332.222-2.753 1.197-4.262l1.596-2.398c.975-1.42 2.062-2.22 3.259-2.397 1.197-.178 2.638.177 4.323 1.065 1.596.888 3.657 1.887 6.184 2.997 2.528 1.11 5.52 1.665 8.978 1.665 2.927 0 5.232-.621 6.917-1.865 1.685-1.243 2.527-2.93 2.527-5.061 0-1.865-.82-3.352-2.46-4.462-1.641-1.11-3.725-2.131-6.252-3.064-2.527-.932-5.232-1.931-8.113-2.997a43.076 43.076 0 0 1-8.114-3.995 20.588 20.588 0 0 1-6.251-6.127c-1.64-2.487-2.461-5.683-2.461-9.59 0-3.286.687-6.216 2.062-8.791a18.467 18.467 0 0 1 5.586-6.394c2.35-1.687 5.099-2.974 8.246-3.862 3.148-.888 6.496-1.332 10.043-1.332ZM491.832 33c3.724 0 5.587 1.865 5.587 5.594v27.438c0 .888-.023 1.665-.067 2.331a18.646 18.646 0 0 1-.199 1.798 11.52 11.52 0 0 0-.133 1.599h.266c.798-1.599 1.928-3.22 3.391-4.862 1.463-1.643 3.192-3.13 5.188-4.462 1.995-1.332 4.256-2.397 6.783-3.197 2.527-.799 5.254-1.198 8.18-1.198 7.537 0 13.367 2.042 17.49 6.127 4.124 4.084 6.185 10.655 6.185 19.713v38.093c0 3.73-1.862 5.595-5.586 5.595h-5.719c-3.725 0-5.587-1.865-5.587-5.595v-34.63c0-4.174-.709-7.526-2.128-10.057-1.419-2.53-4.256-3.796-8.512-3.796-2.927 0-5.609.578-8.047 1.732-2.439 1.154-4.5 2.73-6.185 4.728-1.685 1.998-2.993 4.374-3.924 7.126-.931 2.753-1.396 5.728-1.396 8.924v25.973c0 3.73-1.863 5.595-5.587 5.595h-5.719c-3.724 0-5.586-1.865-5.586-5.595v-83.38c0-3.73 1.862-5.594 5.586-5.594h5.719ZM403.46 59.639c3.636 0 5.454 1.865 5.454 5.594v56.741c0 3.73-1.818 5.595-5.454 5.595h-5.852c-3.636 0-5.453-1.865-5.453-5.595v-56.74c0-3.73 1.817-5.595 5.453-5.595h5.852Zm-112.855 0c3.37 0 5.364 1.643 5.985 4.928l10.907 39.692c.177.977.332 1.865.465 2.664.133.8.288 1.554.466 2.265.177.799.31 1.554.399 2.264h.266c.089-.71.221-1.465.399-2.264.177-.71.332-1.466.465-2.265.133-.799.333-1.687.599-2.664l11.439-39.692c.62-3.196 2.66-4.795 6.118-4.795h5.054c3.281 0 5.321 1.599 6.119 4.795l11.305 39.692c.266.977.466 1.865.599 2.664.133.8.288 1.554.465 2.265.178.799.311 1.554.399 2.264h.266c.089-.71.222-1.465.399-2.264.178-.71.333-1.466.466-2.265.133-.799.332-1.687.598-2.664l10.774-39.692c.798-3.285 2.837-4.928 6.118-4.928h6.119c2.039 0 3.458.577 4.256 1.732.798 1.154.931 2.664.399 4.528l-17.424 57.008c-.887 3.108-2.97 4.662-6.251 4.662h-8.912c-3.369 0-5.453-1.599-6.251-4.795l-10.242-33.965a29.447 29.447 0 0 1-.665-2.664 52.114 52.114 0 0 0-.532-2.398c-.177-.799-.31-1.554-.399-2.264h-.266c-.177.71-.355 1.465-.532 2.264-.177.71-.355 1.51-.532 2.398a29.116 29.116 0 0 1-.665 2.664l-10.242 33.965c-.798 3.196-2.837 4.795-6.118 4.795h-9.178c-3.192 0-5.231-1.554-6.118-4.662l-17.557-57.008c-.532-1.864-.377-3.374.466-4.528.842-1.155 2.239-1.732 4.19-1.732h6.384Z"/><g fill-rule="evenodd"><path fill="url(#c)" d="M0 146.685c35.32 16.893 78.912 8.533 105.246-22.845C136.46 86.648 131.612 31.203 94.418 0L69.69 29.462c29.058 24.377 32.846 67.694 8.46 96.749C58.707 149.379 26.693 157.115 0 146.685" transform="translate(50.006 20.581)"/><path fill="url(#d)" d="M0 117.22c35.32 16.893 78.912 8.533 105.246-22.846a88.41 88.41 0 0 0 8.524-12.066c4.159-25.843-4.987-53.159-26.5-71.207A76.985 76.985 0 0 0 69.694 0c29.055 24.378 32.841 67.692 8.456 96.746C58.707 119.914 26.693 127.65 0 117.22" transform="translate(50.006 50.046)"/><path fill="url(#e)" d="M125.821 8.56C90.501-8.331 46.91.029 20.575 31.407c-31.214 37.192-26.366 92.637 10.828 123.84l24.727-29.462c-29.058-24.377-32.846-67.694-8.46-96.75C67.114 5.866 99.128-1.869 125.82 8.561"/><path fill="url(#f)" d="M114.748 8.56C79.428-8.331 35.837.029 9.502 31.407A88.493 88.493 0 0 0 .98 43.473c-4.16 25.843 4.987 53.158 26.5 71.207a77.006 77.006 0 0 0 17.574 11.101C16 101.403 12.213 58.089 36.597 29.034 56.042 5.866 88.056-1.869 114.748 8.561" transform="translate(11.073)"/></g></g></svg>