<svg xmlns="http://www.w3.org/2000/svg" width="400" height="130" fill="none"><path fill="#1A1F71" fill-rule="evenodd" d="M206.87 41.71c-.228 17.993 16.036 28.034 28.287 34.004 12.588 6.126 16.816 10.054 16.768 15.531-.096 8.384-10.042 12.083-19.35 12.227-16.24.252-25.681-4.384-33.188-7.891l-5.849 27.373c7.531 3.472 21.476 6.499 35.938 6.631 33.944 0 56.152-16.756 56.273-42.736.132-32.971-45.607-34.797-45.295-49.535.108-4.468 4.372-9.237 13.717-10.45 4.624-.612 17.392-1.081 31.866 5.585l5.681-26.484c-7.783-2.835-17.789-5.55-30.244-5.55-31.95 0-54.423 16.984-54.604 41.295ZM346.31 2.697c-6.198 0-11.423 3.616-13.753 9.165l-48.49 115.777h33.92l6.75-18.654h41.451l3.916 18.654H400L373.911 2.697H346.31Zm4.744 33.752 9.789 46.916h-26.809l17.02-46.916ZM165.744 2.697l-26.737 124.942h32.322L198.054 2.697h-32.31Zm-47.817 0-33.644 85.04-13.609-72.308C69.077 7.358 62.771 2.697 55.768 2.697H.769L0 6.325c11.291 2.45 24.119 6.402 31.89 10.63 4.756 2.582 6.114 4.84 7.675 10.978l25.776 99.706h34.161L151.871 2.697h-33.944Z" clip-rule="evenodd"/></svg>